#!OML:ASF F:\VICON\USERDATA\INSTALL\Justin_Nancy\Justin_Nancy.ASF
:FULLY-SPECIFIED
:DEGREES
204
root -9.80088 16.9644 6.59131 -77.6417 -82.2057 80.9786
lowerback 10.0527 -1.29325 -6.81449
upperback -0.678312 -2.45527 1.62522
thorax -6.01439 -0.964168 5.93447
lowerneck -18.1081 -2.66015 -9.04353
upperneck 23.5514 -2.00611 2.66484
head 10.7138 -1.50634 2.16199
rclavicle 3.598e-014 -1.43125e-014
rhumerus -45.0662 -23.2517 -68.4012
rradius 28.2931
rwrist 11.2707
rhand -17.7234 10.1912
rfingers 7.12502
rthumb 8.53729 -19.6163
lclavicle 3.598e-014 -1.43125e-014
lhumerus -28.7394 11.2477 81.8175
lradius 36.6536
lwrist 2.92776
lhand -16.1635 20.9075
lfingers 7.12502
lthumb 10.0424 50.6479
rfemur -35.6632 4.47974 16.662
rtibia 26.6796
rfoot 0.379728 -3.94676
rtoes 21.8469
lfemur 13.5657 -4.23817 -30.5581
ltibia 23.4736
lfoot 0.365433 -15.7945
ltoes -6.86562
205
root -10.0692 16.961 6.60382 -82.2292 -82.1291 85.2175
lowerback 10.0044 -1.20703 -7.6031
upperback -0.540636 -2.41543 1.86023
thorax -5.8078 -0.930463 6.62488
lowerneck -17.9111 -2.43688 -9.02239
upperneck 23.2383 -1.62875 2.34506
head 10.5351 -1.36374 2.09566
rclavicle -3.97569e-015 3.02153e-014
rhumerus -44.313 -22.649 -68.5797
rradius 27.8759
rwrist 11.5603
rhand -18.0832 10.4498
rfingers 7.12502
rthumb 8.19006 -19.3715
lclavicle -3.97569e-015 3.02153e-014
lhumerus -29.3203 12.3775 82.1025
lradius 36.0569
lwrist 2.45596
lhand -17.0615 21.4421
lfingers 7.12502
lthumb 9.17596 51.2224
rfemur -35.4192 4.74419 16.7818
rtibia 28.1648
rfoot 0.756071 -2.89031
rtoes 21.0405
lfemur 12.7562 -3.90611 -30.7429
ltibia 26.1685
lfoot 4.56896 -15.9376
ltoes -6.19569
206
root -10.3204 16.9456 6.65832 -82.5655 -81.8746 85.3878
lowerback 9.9199 -1.20523 -7.69087
upperback -0.439203 -2.42039 1.75974
thorax -5.65195 -0.943125 6.56037
lowerneck -17.8431 -2.40986 -8.85407
upperneck 22.9352 -1.58955 2.15923
head 10.4062 -1.34265 2.00475
rclavicle 1.5704e-014 1.59028e-014
rhumerus -43.812 -22.9312 -68.6545
rradius 27.6284
rwrist 11.5513
rhand -17.5017 10.6237
rfingers 7.12502
rthumb 8.75119 -19.1748
lclavicle 1.5704e-014 1.59028e-014
lhumerus -29.6626 12.8166 82.4013
lradius 35.345
lwrist 1.92417
lhand -19.2475 22.7009
lfingers 7.12502
lthumb 7.06625 52.563
rfemur -35.3326 2.83304 17.4775
rtibia 29.5765
rfoot 1.48701 -0.742793
rtoes 13.5402
lfemur 11.4976 -3.40534 -30.8325
ltibia 28.9361
lfoot 10.0491 -16.0807
ltoes -4.21608
207
root -10.57 16.9442 6.6899 -82.5463 -82.2269 85.2095
lowerback 9.86489 -1.17869 -7.59937
upperback -0.375342 -2.36006 1.9118
thorax -5.55989 -0.920876 6.65904
lowerneck -17.6822 -2.32669 -8.44432
upperneck 22.6418 -1.51065 1.79981
head 10.2576 -1.305 1.81841
rclavicle -2.20651e-014 4.6118e-014
rhumerus -43.4747 -23.3267 -68.4984
rradius 27.4893
rwrist 11.3961
rhand -16.2662 10.8827
rfingers 7.12502
rthumb 9.94338 -18.8624
lclavicle -2.20651e-014 4.6118e-014
lhumerus -30.0769 13.0213 82.7315
lradius 34.6093
lwrist 2.05107
lhand -20.5824 23.5399
lfingers 7.12502
lthumb 5.77758 53.4412
rfemur -34.9443 1.68897 18.5385
rtibia 30.5532
rfoot 1.9522 0.375832
rtoes 8.74793
lfemur 9.93624 -2.95352 -30.1558
ltibia 31.8741
lfoot 15.7356 -15.9552
ltoes -2.37783
208
root -10.8257 16.9735 6.69663 -83.4067 -83.1949 85.8328
lowerback 9.79922 -1.04938 -7.3594
upperback -0.284702 -2.12816 2.39335
thorax -5.45548 -0.815893 7.00422
lowerneck -17.3567 -2.31932 -8.32935
upperneck 22.2742 -1.52968 1.67384
head 10.0629 -1.30886 1.75161
rclavicle -1.96797e-014 1.27222e-014
rhumerus -43.1722 -23.4691 -68.2804
rradius 27.324
rwrist 11.8943
rhand -15.6697 11.0506
rfingers 7.12502
rthumb 10.5188 -18.6662
lclavicle -1.96797e-014 1.27222e-014
lhumerus -30.5935 12.532 83.5864
lradius 33.9537
lwrist 2.4193
lhand -21.6156 24.0755
lfingers 7.12502
lthumb 4.7799 54.0016
rfemur -34.1136 2.41954 19.5872
rtibia 31.1527
rfoot 2.21148 0.0368145
rtoes 11.6776
lfemur 8.31696 -2.43175 -28.6843
ltibia 34.8211
lfoot 21.0321 -16.1685
ltoes -1.15786
209
root -11.0869 17.0142 6.712 -84.0776 -84.2451 86.2845
lowerback 9.57824 -0.974514 -6.7394
upperback -0.156539 -1.9245 2.76044
thorax -5.23585 -0.744025 7.00348
lowerneck -17.3062 -2.363 -8.30651
upperneck 22.2885 -1.62906 1.77733
head 10.0638 -1.34101 1.77121
rclavicle 5.36719e-015 -1.11319e-014
rhumerus -42.8039 -23.4299 -68.5095
rradius 27.1645
rwrist 12.1425
rhand -16.1711 10.9536
rfingers 7.12502
rthumb 10.0351 -18.7871
lclavicle 5.36719e-015 -1.11319e-014
lhumerus -31.0235 11.372 84.4592
lradius 33.308
lwrist 3.14343
lhand -22.7515 25.2537
lfingers 7.12502
lthumb 3.68303 55.2017
rfemur -33.0533 3.74187 20.433
rtibia 31.4022
rfoot 2.0245 -0.667557
rtoes 16.1992
lfemur 6.64341 -2.31066 -27.284
ltibia 37.7367
lfoot 25.8956 -16.152
ltoes 2.09088
210
root -11.3604 17.0585 6.75813 -84.4866 -84.9896 86.5375
lowerback 9.12823 -1.04639 -5.82463
upperback -0.0361765 -1.89034 2.87007
thorax -4.88368 -0.769849 6.56768
lowerneck -17.472 -2.40865 -8.4281
upperneck 22.6776 -1.72069 2.05227
head 10.2429 -1.37282 1.87754
rclavicle 1.59028e-014 -6.36111e-015
rhumerus -42.413 -23.1414 -68.9132
rradius 27.3144
rwrist 11.5192
rhand -15.9048 10.5803
rfingers 7.12502
rthumb 10.292 -19.1479
lclavicle 1.59028e-014 -6.36111e-015
lhumerus -31.3814 10.7407 84.8813
lradius 32.6526
lwrist 5.1556
lhand -22.8825 25.3831
lfingers 7.12502
lthumb 3.5566 55.3331
rfemur -31.9313 4.42292 21.0246
rtibia 31.4633
rfoot 1.40573 -1.09176
rtoes 16.407
lfemur 4.98271 -2.79172 -26.6565
ltibia 40.5242
lfoot 30.4308 -15.7387
ltoes 6.82769
211
root -11.6029 17.1001 6.77235 -81.1308 -85.8069 82.9199
lowerback 9.21911 -1.07025 -5.21475
upperback -0.0384952 -1.85332 3.12356
thorax -4.95295 -0.762889 6.48825
lowerneck -17.4309 -2.5766 -8.61794
upperneck 23.0691 -1.9855 2.29614
head 10.3972 -1.4963 1.96096
rclavicle -4.11484e-014 7.95139e-015
rhumerus -42.111 -22.8964 -69.0917
rradius 27.4273
rwrist 11.0541
rhand -14.9227 10.4521
rfingers 7.12502
rthumb 11.2393 -19.2268
lclavicle -4.11484e-014 7.95139e-015
lhumerus -31.7027 10.3896 85.3285
lradius 31.7469
lwrist 6.52115
lhand -22.4443 25.0141
lfingers 7.12502
lthumb 3.97973 54.9567
rfemur -30.6265 4.87732 22.0125
rtibia 31.4721
rfoot 0.659772 -1.98858
rtoes 13.2589
lfemur 3.28003 -2.76962 -25.3371
ltibia 43.2388
lfoot 34.7108 -16.2468
ltoes 8.3413
212
root -11.8397 17.1396 6.79097 -77.3443 -86.3487 78.8359
lowerback 9.41404 -0.960657 -4.8884
upperback -0.0716449 -1.67485 3.27431
thorax -5.12886 -0.674573 6.44888
lowerneck -17.0894 -2.76481 -8.55287
upperneck 23.2561 -2.36991 2.48944
head 10.4238 -1.65421 1.96776
rclavicle 7.15625e-015 -1.27222e-014
rhumerus -41.8969 -22.6909 -69.3585
rradius 27.3927
rwrist 10.7661
rhand -14.8537 10.3938
rfingers 7.12502
rthumb 11.3059 -19.2815
lclavicle 7.15625e-015 -1.27222e-014
lhumerus -31.9855 9.22557 86.1747
lradius 30.7224
lwrist 7.05977
lhand -22.2346 24.9533
lfingers 7.12502
lthumb 4.1822 54.892
rfemur -29.2838 5.03374 22.7303
rtibia 31.3984
rfoot -0.0849509 -2.43177
rtoes 11.6938
lfemur 1.6074 -2.75685 -24.4115
ltibia 45.8275
lfoot 36.3499 -17.0114
ltoes 2.80481
213
root -12.074 17.1759 6.81694 -74.7247 -86.5368 75.9005
lowerback 9.61071 -0.895998 -4.80733
upperback -0.0724179 -1.58901 3.23705
thorax -5.2561 -0.629886 6.35893
lowerneck -16.7375 -2.8081 -8.45302
upperneck 23.3685 -2.60316 2.85863
head 10.4124 -1.7166 2.05365
rclavicle 8.74653e-015 1.90833e-014
rhumerus -41.6064 -22.4067 -69.9263
rradius 27.4002
rwrist 10.4969
rhand -15.0567 10.0905
rfingers 7.12502
rthumb 11.1101 -19.5954
lclavicle 8.74653e-015 1.90833e-014
lhumerus -32.286 7.7454 86.9746
lradius 29.894
lwrist 7.79102
lhand -22.6409 25.1223
lfingers 7.12502
lthumb 3.78991 55.0683
rfemur -27.8754 5.06164 23.015
rtibia 31.1705
rfoot -0.802794 -2.70026
rtoes 12.1249
lfemur -0.00371476 -2.62784 -24.0022
ltibia 48.3787
lfoot 35.1231 -17.9155
ltoes -2.95277
214
root -12.3348 17.2237 6.87003 -74.3101 -87.3402 75.0374
lowerback 9.53128 -0.821172 -3.70331
upperback 0.0902692 -1.36918 3.24079
thorax -5.09481 -0.561218 5.69195
lowerneck -16.6966 -2.85387 -8.28236
upperneck 23.771 -2.78982 3.03807
head 10.5612 -1.77899 2.06585
rclavicle 2.98177e-015 1.59028e-014
rhumerus -41.1467 -22.2892 -70.4586
rradius 27.2528
rwrist 10.243
rhand -15.0616 10.4921
rfingers 7.12502
rthumb 11.1054 -19.194
lclavicle 2.98177e-015 1.59028e-014
lhumerus -32.46 6.51367 87.5798
lradius 28.9618
lwrist 8.12892
lhand -23.1033 25.3114
lfingers 7.12502
lthumb 3.34338 55.2649
rfemur -26.1529 5.32863 23.7786
rtibia 30.7793
rfoot -1.49051 -3.06916
rtoes 12.1782
lfemur -1.27677 -2.49178 -23.2972
ltibia 50.8206
lfoot 32.7791 -17.4714
ltoes -4.74631
215
root -12.5476 17.2624 6.88532 -58.4935 -88.2435 58.8987
lowerback 9.93993 -0.762065 -2.94366
upperback 0.0775479 -1.20445 3.57511
thorax -5.36687 -0.491063 5.60582
lowerneck -16.5164 -3.03711 -8.22403
upperneck 23.9951 -3.09472 3.0138
head 10.6271 -1.92618 2.006
rclavicle 4.37326e-015 2.06736e-014
rhumerus -40.6915 -22.9806 -70.2298
rradius 26.8575
rwrist 11.0474
rhand -14.4193 11.2303
rfingers 7.12502
rthumb 11.7248 -18.4216
lclavicle 4.37326e-015 2.06736e-014
lhumerus -32.5964 5.86316 88.2304
lradius 27.8968
lwrist 7.49298
lhand -22.3499 24.99
lfingers 7.12502
lthumb 4.07093 54.9309
rfemur -24.5454 5.65514 25.0274
rtibia 30.2652
rfoot -2.12952 -3.82966
rtoes 11.6076
lfemur -2.87597 -2.22475 -21.7117
ltibia 53.2669
lfoot 30.5813 -17.0806
ltoes -1.90278
216
root -12.7726 17.3033 6.91364 -33.3637 -88.8145 33.7417
lowerback 9.92996 -0.724895 -2.12231
upperback -0.0550427 -1.05276 3.75752
thorax -5.52962 -0.431557 5.31185
lowerneck -16.1897 -3.23344 -8.53096
upperneck 24.2073 -3.43472 3.36611
head 10.6764 -2.08012 2.1394
rclavicle -3.73715e-014 3.97569e-014
rhumerus -40.3778 -23.6211 -70.0598
rradius 26.4806
rwrist 12.1505
rhand -14.4378 11.6524
rfingers 7.12502
rthumb 11.7069 -18.0005
lclavicle -3.73715e-014 3.97569e-014
lhumerus -32.9674 5.46249 88.7224
lradius 27.0666
lwrist 6.72581
lhand -21.6173 24.5792
lfingers 7.12502
lthumb 4.7783 54.5053
rfemur -23.2066 5.86194 25.9684
rtibia 29.5894
rfoot -2.59858 -4.5044
rtoes 11.1854
lfemur -4.72492 -2.22193 -20.6333
ltibia 55.6076
lfoot 28.6853 -16.2098
ltoes 5.19792
217
root -13.0063 17.3418 6.94629 -12.7723 -88.9941 13.1835
lowerback 9.79387 -0.630561 -1.48353
upperback -0.236885 -0.854174 3.59577
thorax -5.67624 -0.346287 4.74605
lowerneck -15.5349 -3.33788 -8.21946
upperneck 24.1354 -3.76906 3.4608
head 10.539 -2.20368 2.07965
rclavicle 3.18055e-015 -3.18055e-014
rhumerus -40.028 -23.3223 -70.7513
rradius 26.1808
rwrist 12.208
rhand -15.1232 11.8482
rfingers 7.12502
rthumb 11.0459 -17.8411
lclavicle 3.18055e-015 -3.18055e-014
lhumerus -33.3035 5.25168 88.8251
lradius 26.1136
lwrist 5.47786
lhand -21.6487 24.3682
lfingers 7.12502
lthumb 4.74798 54.295
rfemur -21.9844 5.51258 26.5057
rtibia 28.9359
rfoot -3.00274 -4.50843
rtoes 9.32317
lfemur -6.65212 -1.80463 -20.0062
ltibia 57.7909
lfoot 23.1903 -14.705
ltoes 0.899608
